<svg width="600" height="80" viewBox="0 0 600 80" fill="none" xmlns="http://www.w3.org/2000/svg">
  <rect width="600" height="80" fill="transparent"/>
  <g opacity="0.85">
    <!-- Eye Icon - recreated to match the exact image -->
    <g transform="translate(8, 15)">
      <!-- Outer eye outline -->
      <path d="M25 25 C5 5, 45 5, 65 25 C45 45, 5 45, 25 25 Z" fill="none" stroke="#333333" stroke-width="4"/>
      <!-- Inner circle -->
      <circle cx="35" cy="25" r="15" fill="none" stroke="#333333" stroke-width="3"/>
      <!-- Internal eye details -->
      <path d="M25 18 C28 15, 32 15, 35 18 C32 21, 28 21, 25 18 Z" fill="#333333"/>
      <path d="M35 18 C38 15, 42 15, 45 18 C42 21, 38 21, 35 18 Z" fill="#333333"/>
      <path d="M25 32 C28 29, 32 29, 35 32 C32 35, 28 35, 25 32 Z" fill="#333333"/>
      <path d="M35 32 C38 29, 42 29, 45 32 C42 35, 38 35, 35 32 Z" fill="#333333"/>
    </g>
    
    <!-- ONESIGHT Text -->
    <text x="90" y="35" font-family="Arial, sans-serif" font-size="26" font-weight="bold" fill="#333333" letter-spacing="4px">ONESIGHT</text>
    
    <!-- EssilorLuxottica Foundation Text -->
    <text x="90" y="55" font-family="Arial, sans-serif" font-size="14" font-weight="normal" fill="#333333" letter-spacing="1px">EssilorLuxottica Foundation</text>
  </g>
</svg>